<?xml version="1.0" encoding="UTF-8"?> <svg xmlns="http://www.w3.org/2000/svg" width="100" height="100" viewBox="0 0 100 100" fill="none"> <rect width="100" height="100" fill="#ccc"></rect> <path fill-rule="evenodd" clip-rule="evenodd" d="M20.7031 20.3125H79.2969V79.5154H20.7031V20.3125ZM24.2814 25.0893V71.8432L47.4066 37.3922L24.2814 25.0893ZM51.7894 33.7585L70.3184 23.9006H51.7892L51.7894 33.7585ZM48.2109 23.9006H29.6818L48.2111 33.7584L48.2109 23.9006ZM75.7186 25.0893L52.5939 37.3922L75.7186 71.8431V25.0893ZM74.1469 75.9274L50.0003 39.9541L25.8531 75.9274H74.1469Z" fill="black"></path> <path fill-rule="evenodd" clip-rule="evenodd" d="M20.7031 20.3125H79.2969V79.5154H20.7031V20.3125ZM24.2814 25.0893V71.8432L47.4066 37.3922L24.2814 25.0893ZM51.7894 33.7585L70.3184 23.9006H51.7892L51.7894 33.7585ZM48.2109 23.9006H29.6818L48.2111 33.7584L48.2109 23.9006ZM75.7186 25.0893L52.5939 37.3922L75.7186 71.8431V25.0893ZM74.1469 75.9274L50.0003 39.9541L25.8531 75.9274H74.1469Z" fill="black" fill-opacity="0.2"></path> <path fill-rule="evenodd" clip-rule="evenodd" d="M20.7031 20.3125H79.2969V79.5154H20.7031V20.3125ZM24.2814 25.0893V71.8432L47.4066 37.3922L24.2814 25.0893ZM51.7894 33.7585L70.3184 23.9006H51.7892L51.7894 33.7585ZM48.2109 23.9006H29.6818L48.2111 33.7584L48.2109 23.9006ZM75.7186 25.0893L52.5939 37.3922L75.7186 71.8431V25.0893ZM74.1469 75.9274L50.0003 39.9541L25.8531 75.9274H74.1469Z" stroke="black" stroke-width="2.7"></path> <path fill-rule="evenodd" clip-rule="evenodd" d="M20.7031 20.3125H79.2969V79.5154H20.7031V20.3125ZM24.2814 25.0893V71.8432L47.4066 37.3922L24.2814 25.0893ZM51.7894 33.7585L70.3184 23.9006H51.7892L51.7894 33.7585ZM48.2109 23.9006H29.6818L48.2111 33.7584L48.2109 23.9006ZM75.7186 25.0893L52.5939 37.3922L75.7186 71.8431V25.0893ZM74.1469 75.9274L50.0003 39.9541L25.8531 75.9274H74.1469Z" stroke="black" stroke-opacity="0.2" stroke-width="2.7"></path> </svg>